<svg id="what-svg" enable-background="new 0 0 60 60" height="512" viewBox="0 0 60 60" width="512" 
    xmlns="http://www.w3.org/2000/svg">
    <path d="m5 35c-2.757 0-5-2.243-5-5s2.243-5 5-5 5 2.243 5 5-2.243 5-5 5zm0-8c-1.654 0-3 1.346-3 3s1.346 3 3 3 3-1.346 3-3-1.346-3-3-3z"/>
    <path d="m55 35c-2.757 0-5-2.243-5-5s2.243-5 5-5 5 2.243 5 5-2.243 5-5 5zm0-8c-1.654 0-3 1.346-3 3s1.346 3 3 3 3-1.346 3-3-1.346-3-3-3z"/>
    <path d="m30 60c-2.757 0-5-2.243-5-5s2.243-5 5-5 5 2.243 5 5-2.243 5-5 5zm0-8c-1.654 0-3 1.346-3 3s1.346 3 3 3 3-1.346 3-3-1.346-3-3-3z"/>
    <path d="m30 10c-2.757 0-5-2.243-5-5s2.243-5 5-5 5 2.243 5 5-2.243 5-5 5zm0-8c-1.654 0-3 1.346-3 3s1.346 3 3 3 3-1.346 3-3-1.346-3-3-3z"/>
    <path d="m54.682 27.032c-.483 0-.908-.351-.986-.843-.303-1.899-.836-3.759-1.583-5.526-.215-.509.023-1.096.532-1.311.508-.216 1.095.021 1.311.531.81 1.917 1.388 3.933 1.716 5.991.087.545-.285 1.058-.83 1.145-.055.009-.108.013-.16.013z"/>
    <path d="m49.795 15.733c-.299 0-.595-.134-.792-.389-1.258-1.63-2.724-3.095-4.355-4.354-.437-.338-.518-.966-.18-1.403.337-.438.966-.517 1.403-.181 1.766 1.364 3.353 2.95 4.716 4.715.337.438.257 1.065-.18 1.402-.183.142-.398.21-.612.21z"/>
    <path d="m39.726 7.967c-.13 0-.262-.025-.389-.079-1.766-.747-3.626-1.28-5.527-1.584-.545-.087-.917-.6-.83-1.146.087-.545.6-.921 1.146-.829 2.06.329 4.075.907 5.99 1.717.509.215.747.802.531 1.311-.161.381-.531.61-.921.61z"/>
    <path d="m33.967 55.684c-.483 0-.908-.351-.986-.842-.087-.546.284-1.059.83-1.146 1.901-.304 3.761-.837 5.527-1.584.509-.214 1.095.021 1.311.531.215.509-.023 1.096-.531 1.311-1.915.81-3.93 1.388-5.99 1.717-.055.009-.109.013-.161.013z"/>
    <path d="m45.267 50.795c-.299 0-.595-.134-.792-.389-.338-.438-.257-1.065.18-1.402 1.63-1.26 3.095-2.725 4.354-4.356.338-.437.965-.517 1.403-.181.437.338.518.966.181 1.403-1.363 1.766-2.949 3.353-4.714 4.716-.183.141-.398.209-.612.209z"/>
    <path d="m53.033 40.727c-.13 0-.262-.025-.389-.079-.509-.215-.747-.802-.532-1.311.748-1.768 1.28-3.627 1.583-5.526.087-.545.599-.917 1.145-.83.545.087.917.6.83 1.145-.328 2.059-.906 4.074-1.716 5.991-.161.38-.531.61-.921.61z"/>
    <path d="m6.967 40.727c-.39 0-.76-.229-.922-.61-.81-1.917-1.388-3.933-1.716-5.991-.087-.545.285-1.058.83-1.145.546-.087 1.058.285 1.145.83.303 1.899.836 3.759 1.583 5.526.215.509-.023 1.096-.532 1.311-.126.053-.258.079-.388.079z"/>
    <path d="m14.74 50.801c-.213 0-.428-.068-.61-.208-1.766-1.364-3.353-2.95-4.716-4.715-.337-.438-.257-1.065.18-1.402.438-.338 1.065-.258 1.403.18 1.258 1.63 2.724 3.095 4.355 4.354.437.338.518.966.18 1.403-.197.254-.492.388-.792.388z"/>
    <path d="m26.033 55.684c-.052 0-.106-.004-.159-.013-2.06-.329-4.075-.907-5.99-1.717-.509-.215-.747-.802-.531-1.311.215-.51.802-.745 1.311-.531 1.766.747 3.626 1.28 5.527 1.584.545.087.917.6.83 1.146-.08.491-.505.842-.988.842z"/>
    <path d="m20.274 7.967c-.39 0-.76-.229-.921-.61-.215-.509.023-1.096.531-1.311 1.915-.81 3.93-1.388 5.99-1.717.544-.093 1.058.284 1.146.829.087.546-.284 1.059-.83 1.146-1.901.304-3.761.837-5.527 1.584-.127.053-.259.079-.389.079z"/>
    <path d="m10.199 15.741c-.213 0-.428-.068-.61-.208-.437-.338-.518-.966-.181-1.403 1.363-1.766 2.949-3.353 4.714-4.716.437-.338 1.065-.257 1.403.18.338.438.257 1.065-.18 1.402-1.63 1.26-3.095 2.725-4.354 4.356-.197.255-.493.389-.792.389z"/>
    <path d="m5.318 27.032c-.052 0-.105-.004-.159-.013-.545-.087-.917-.6-.83-1.145.328-2.059.906-4.074 1.716-5.991.215-.508.802-.747 1.311-.531.509.215.747.802.532 1.311-.748 1.768-1.28 3.627-1.583 5.526-.079.493-.504.843-.987.843z"/>
    <path d="m30 48c-9.925 0-18-8.075-18-18s8.075-18 18-18 18 8.075 18 18-8.075 18-18 18zm0-34c-8.823 0-16 7.178-16 16s7.177 16 16 16 16-7.178 16-16-7.177-16-16-16z"/>
    <path d="m17 31c-.552 0-1-.447-1-1 0-7.72 6.28-14 14-14 .552 0 1 .447 1 1s-.448 1-1 1c-6.617 0-12 5.383-12 12 0 .553-.448 1-1 1z"/>
    <path d="m30 44c-.552 0-1-.447-1-1s.448-1 1-1c6.617 0 12-5.383 12-12 0-.553.448-1 1-1s1 .447 1 1c0 7.72-6.28 14-14 14z"/>
    <path d="m35 33c-.125 0-.251-.023-.371-.071l-4.629-1.852-4.629 1.852c-.385.152-.826.054-1.107-.252-.281-.305-.344-.753-.159-1.124l5-10c.339-.678 1.45-.678 1.789 0l5 10c.186.371.123.819-.159 1.124-.192.21-.461.323-.735.323zm-5-4c.126 0 .252.023.371.071l2.558 1.023-2.929-5.858-2.929 5.858 2.558-1.023c.119-.048.245-.071.371-.071z"/>
    <path d="m30 39c-.297 0-.578-.132-.768-.359l-5-6c-.205-.246-.28-.575-.201-.886s.301-.564.598-.684l5-2c.238-.096.504-.096.743 0l5 2c.297.119.52.373.598.684s.004.64-.201.886l-5 6c-.191.227-.472.359-.769.359zm-3.351-6.583 3.351 4.021 3.351-4.021-3.351-1.34z"/>
</svg>